<svg xmlns="http://www.w3.org/2000/svg" xmlns:xlink="http://www.w3.org/1999/xlink" width="200" zoomAndPan="magnify" viewBox="0 0 150 30.000001" height="40" preserveAspectRatio="xMidYMid meet" version="1.0"><defs><g/><clipPath id="b3dc80fba8"><path d="M 2.417969 6 L 19 6 L 19 26 L 2.417969 26 Z M 2.417969 6 " clip-rule="nonzero"/></clipPath></defs><g clip-path="url(#b3dc80fba8)"><g fill="currentColor" fill-opacity="1"><g transform="translate(2.429223, 25.738535)"><g><path d="M 15.578125 -0.359375 C 15.648438 -0.265625 15.660156 -0.179688 15.609375 -0.109375 C 15.566406 -0.0351562 15.476562 0 15.34375 0 L 11.15625 0 C 11.050781 0 10.976562 -0.0234375 10.9375 -0.078125 L 5.25 -7.109375 C 5.164062 -7.023438 4.976562 -6.820312 4.6875 -6.5 C 4.40625 -6.1875 4.066406 -5.804688 3.671875 -5.359375 C 3.273438 -4.910156 2.863281 -4.445312 2.4375 -3.96875 C 2.019531 -3.488281 1.625 -3.035156 1.25 -2.609375 C 0.875 -2.191406 0.570312 -1.851562 0.34375 -1.59375 C 0.113281 -1.332031 0 -1.203125 0 -1.203125 L 0 -19.3125 C 0 -19.457031 0.0859375 -19.53125 0.265625 -19.53125 L 3.484375 -19.53125 C 3.648438 -19.53125 3.734375 -19.457031 3.734375 -19.3125 L 3.734375 -10.421875 L 11.078125 -19.453125 C 11.128906 -19.503906 11.203125 -19.53125 11.296875 -19.53125 L 15.28125 -19.53125 C 15.40625 -19.53125 15.492188 -19.488281 15.546875 -19.40625 C 15.597656 -19.320312 15.582031 -19.238281 15.5 -19.15625 L 7.734375 -9.59375 Z M 15.578125 -0.359375 "/></g></g></g></g><g fill="currentColor" fill-opacity="1"><g transform="translate(18.849953, 25.738535)"><g><path d="M 11.234375 -9.71875 C 11.234375 -9.207031 11.054688 -8.773438 10.703125 -8.421875 C 10.347656 -8.066406 9.910156 -7.890625 9.390625 -7.890625 C 8.890625 -7.890625 8.457031 -8.066406 8.09375 -8.421875 C 7.738281 -8.773438 7.5625 -9.207031 7.5625 -9.71875 C 7.5625 -10.238281 7.738281 -10.675781 8.09375 -11.03125 C 8.457031 -11.382812 8.890625 -11.5625 9.390625 -11.5625 C 9.910156 -11.5625 10.347656 -11.382812 10.703125 -11.03125 C 11.054688 -10.675781 11.234375 -10.238281 11.234375 -9.71875 Z M 18.796875 -9.78125 C 18.796875 -8.5625 18.597656 -7.367188 18.203125 -6.203125 C 17.816406 -5.046875 17.234375 -4 16.453125 -3.0625 C 15.671875 -2.125 14.691406 -1.378906 13.515625 -0.828125 C 12.347656 -0.273438 10.984375 0 9.421875 0 C 7.835938 0 6.457031 -0.273438 5.28125 -0.828125 C 4.101562 -1.378906 3.125 -2.125 2.34375 -3.0625 C 1.5625 -4 0.972656 -5.046875 0.578125 -6.203125 C 0.191406 -7.367188 0 -8.5625 0 -9.78125 C 0 -11.007812 0.191406 -12.195312 0.578125 -13.34375 C 0.972656 -14.5 1.5625 -15.539062 2.34375 -16.46875 C 3.125 -17.394531 4.101562 -18.132812 5.28125 -18.6875 C 6.457031 -19.25 7.835938 -19.53125 9.421875 -19.53125 C 10.984375 -19.53125 12.347656 -19.25 13.515625 -18.6875 C 14.691406 -18.132812 15.671875 -17.394531 16.453125 -16.46875 C 17.234375 -15.539062 17.816406 -14.5 18.203125 -13.34375 C 18.597656 -12.195312 18.796875 -11.007812 18.796875 -9.78125 Z M 15.125 -9.71875 C 15.125 -10.507812 15.003906 -11.28125 14.765625 -12.03125 C 14.523438 -12.789062 14.164062 -13.476562 13.6875 -14.09375 C 13.21875 -14.707031 12.625 -15.191406 11.90625 -15.546875 C 11.195312 -15.898438 10.367188 -16.078125 9.421875 -16.078125 C 8.460938 -16.078125 7.625 -15.898438 6.90625 -15.546875 C 6.1875 -15.191406 5.585938 -14.707031 5.109375 -14.09375 C 4.628906 -13.476562 4.269531 -12.789062 4.03125 -12.03125 C 3.800781 -11.28125 3.6875 -10.507812 3.6875 -9.71875 C 3.6875 -8.9375 3.800781 -8.171875 4.03125 -7.421875 C 4.269531 -6.671875 4.628906 -5.992188 5.109375 -5.390625 C 5.585938 -4.785156 6.1875 -4.304688 6.90625 -3.953125 C 7.625 -3.597656 8.460938 -3.421875 9.421875 -3.421875 C 10.367188 -3.421875 11.195312 -3.597656 11.90625 -3.953125 C 12.625 -4.304688 13.21875 -4.785156 13.6875 -5.390625 C 14.164062 -5.992188 14.523438 -6.671875 14.765625 -7.421875 C 15.003906 -8.171875 15.125 -8.9375 15.125 -9.71875 Z M 15.125 -9.71875 "/></g></g></g><g fill="currentColor" fill-opacity="1"><g transform="translate(38.564586, 25.738535)"><g><path d="M 16.15625 -19.53125 C 16.332031 -19.53125 16.421875 -19.457031 16.421875 -19.3125 L 16.421875 -0.21875 C 16.421875 -0.0703125 16.332031 0 16.15625 0 L 12.9375 0 C 12.914062 0 12.875 -0.00390625 12.8125 -0.015625 C 12.757812 -0.0351562 12.726562 -0.0546875 12.71875 -0.078125 L 3.734375 -12.9375 L 3.734375 -4.6875 L 0 -4.6875 L 0 -19.3125 C 0 -19.457031 0.0820312 -19.53125 0.25 -19.53125 L 3.484375 -19.53125 C 3.515625 -19.53125 3.554688 -19.523438 3.609375 -19.515625 C 3.660156 -19.503906 3.691406 -19.484375 3.703125 -19.453125 L 12.71875 -6.59375 L 12.71875 -19.3125 C 12.71875 -19.457031 12.816406 -19.53125 13.015625 -19.53125 Z M 16.15625 -19.53125 "/></g></g></g><g fill="currentColor" fill-opacity="1"><g transform="translate(55.81489, 25.738535)"><g><path d="M 15.578125 -0.359375 C 15.648438 -0.265625 15.660156 -0.179688 15.609375 -0.109375 C 15.566406 -0.0351562 15.476562 0 15.34375 0 L 11.15625 0 C 11.050781 0 10.976562 -0.0234375 10.9375 -0.078125 L 5.25 -7.109375 C 5.164062 -7.023438 4.976562 -6.820312 4.6875 -6.5 C 4.40625 -6.1875 4.066406 -5.804688 3.671875 -5.359375 C 3.273438 -4.910156 2.863281 -4.445312 2.4375 -3.96875 C 2.019531 -3.488281 1.625 -3.035156 1.25 -2.609375 C 0.875 -2.191406 0.570312 -1.851562 0.34375 -1.59375 C 0.113281 -1.332031 0 -1.203125 0 -1.203125 L 0 -19.3125 C 0 -19.457031 0.0859375 -19.53125 0.265625 -19.53125 L 3.484375 -19.53125 C 3.648438 -19.53125 3.734375 -19.457031 3.734375 -19.3125 L 3.734375 -10.421875 L 11.078125 -19.453125 C 11.128906 -19.503906 11.203125 -19.53125 11.296875 -19.53125 L 15.28125 -19.53125 C 15.40625 -19.53125 15.492188 -19.488281 15.546875 -19.40625 C 15.597656 -19.320312 15.582031 -19.238281 15.5 -19.15625 L 7.734375 -9.59375 Z M 15.578125 -0.359375 "/></g></g></g><g fill="currentColor" fill-opacity="1"><g transform="translate(72.23562, 25.738535)"><g><path d="M 15.328125 -0.296875 C 15.359375 -0.222656 15.347656 -0.15625 15.296875 -0.09375 C 15.253906 -0.03125 15.191406 0 15.109375 0 L 11.734375 0 C 11.617188 0 11.546875 -0.046875 11.515625 -0.140625 L 7.65625 -11.03125 L 3.859375 -0.140625 C 3.835938 -0.046875 3.753906 0 3.609375 0 L 0.265625 0 C 0.148438 0 0.0703125 -0.03125 0.03125 -0.09375 C -0.0078125 -0.15625 -0.0078125 -0.222656 0.03125 -0.296875 L 7.421875 -19.375 C 7.453125 -19.476562 7.53125 -19.53125 7.65625 -19.53125 C 7.789062 -19.53125 7.875 -19.476562 7.90625 -19.375 Z M 15.328125 -0.296875 "/></g></g></g><g fill="currentColor" fill-opacity="1"><g transform="translate(88.339162, 25.738535)"><g><path d="M 17.46875 -4.703125 L 17.46875 -10.90625 L 12.5 -0.921875 C 12.46875 -0.828125 12.394531 -0.78125 12.28125 -0.78125 L 9.28125 -0.78125 C 9.144531 -0.78125 9.0625 -0.828125 9.03125 -0.921875 L 3.734375 -11.171875 L 3.734375 -0.21875 C 3.734375 -0.0703125 3.644531 0 3.46875 0 L 0.25 0 C 0.0820312 0 0 -0.0703125 0 -0.21875 L 0 -19.3125 C 0 -19.457031 0.0820312 -19.53125 0.25 -19.53125 L 3.515625 -19.53125 C 3.640625 -19.53125 3.722656 -19.476562 3.765625 -19.375 L 10.765625 -5.078125 L 17.421875 -19.375 C 17.492188 -19.476562 17.582031 -19.53125 17.6875 -19.53125 L 20.921875 -19.53125 C 21.097656 -19.53125 21.1875 -19.457031 21.1875 -19.3125 L 21.1875 -4.703125 Z M 17.46875 -4.703125 "/></g></g></g><g fill="currentColor" fill-opacity="1"><g transform="translate(110.591321, 25.738535)"><g><path d="M 11.234375 -9.71875 C 11.234375 -9.207031 11.054688 -8.773438 10.703125 -8.421875 C 10.347656 -8.066406 9.910156 -7.890625 9.390625 -7.890625 C 8.890625 -7.890625 8.457031 -8.066406 8.09375 -8.421875 C 7.738281 -8.773438 7.5625 -9.207031 7.5625 -9.71875 C 7.5625 -10.238281 7.738281 -10.675781 8.09375 -11.03125 C 8.457031 -11.382812 8.890625 -11.5625 9.390625 -11.5625 C 9.910156 -11.5625 10.347656 -11.382812 10.703125 -11.03125 C 11.054688 -10.675781 11.234375 -10.238281 11.234375 -9.71875 Z M 18.796875 -9.78125 C 18.796875 -8.5625 18.597656 -7.367188 18.203125 -6.203125 C 17.816406 -5.046875 17.234375 -4 16.453125 -3.0625 C 15.671875 -2.125 14.691406 -1.378906 13.515625 -0.828125 C 12.347656 -0.273438 10.984375 0 9.421875 0 C 7.835938 0 6.457031 -0.273438 5.28125 -0.828125 C 4.101562 -1.378906 3.125 -2.125 2.34375 -3.0625 C 1.5625 -4 0.972656 -5.046875 0.578125 -6.203125 C 0.191406 -7.367188 0 -8.5625 0 -9.78125 C 0 -11.007812 0.191406 -12.195312 0.578125 -13.34375 C 0.972656 -14.5 1.5625 -15.539062 2.34375 -16.46875 C 3.125 -17.394531 4.101562 -18.132812 5.28125 -18.6875 C 6.457031 -19.25 7.835938 -19.53125 9.421875 -19.53125 C 10.984375 -19.53125 12.347656 -19.25 13.515625 -18.6875 C 14.691406 -18.132812 15.671875 -17.394531 16.453125 -16.46875 C 17.234375 -15.539062 17.816406 -14.5 18.203125 -13.34375 C 18.597656 -12.195312 18.796875 -11.007812 18.796875 -9.78125 Z M 15.125 -9.71875 C 15.125 -10.507812 15.003906 -11.28125 14.765625 -12.03125 C 14.523438 -12.789062 14.164062 -13.476562 13.6875 -14.09375 C 13.21875 -14.707031 12.625 -15.191406 11.90625 -15.546875 C 11.195312 -15.898438 10.367188 -16.078125 9.421875 -16.078125 C 8.460938 -16.078125 7.625 -15.898438 6.90625 -15.546875 C 6.1875 -15.191406 5.585938 -14.707031 5.109375 -14.09375 C 4.628906 -13.476562 4.269531 -12.789062 4.03125 -12.03125 C 3.800781 -11.28125 3.6875 -10.507812 3.6875 -9.71875 C 3.6875 -8.9375 3.800781 -8.171875 4.03125 -7.421875 C 4.269531 -6.671875 4.628906 -5.992188 5.109375 -5.390625 C 5.585938 -4.785156 6.1875 -4.304688 6.90625 -3.953125 C 7.625 -3.597656 8.460938 -3.421875 9.421875 -3.421875 C 10.367188 -3.421875 11.195312 -3.597656 11.90625 -3.953125 C 12.625 -4.304688 13.21875 -4.785156 13.6875 -5.390625 C 14.164062 -5.992188 14.523438 -6.671875 14.765625 -7.421875 C 15.003906 -8.171875 15.125 -8.9375 15.125 -9.71875 Z M 15.125 -9.71875 "/></g></g></g><g fill="currentColor" fill-opacity="1"><g transform="translate(130.305953, 25.738535)"><g><path d="M 16.15625 -19.53125 C 16.332031 -19.53125 16.421875 -19.457031 16.421875 -19.3125 L 16.421875 -0.21875 C 16.421875 -0.0703125 16.332031 0 16.15625 0 L 12.9375 0 C 12.914062 0 12.875 -0.00390625 12.8125 -0.015625 C 12.757812 -0.0351562 12.726562 -0.0546875 12.71875 -0.078125 L 3.734375 -12.9375 L 3.734375 -4.6875 L 0 -4.6875 L 0 -19.3125 C 0 -19.457031 0.0820312 -19.53125 0.25 -19.53125 L 3.484375 -19.53125 C 3.515625 -19.53125 3.554688 -19.523438 3.609375 -19.515625 C 3.660156 -19.503906 3.691406 -19.484375 3.703125 -19.453125 L 12.71875 -6.59375 L 12.71875 -19.3125 C 12.71875 -19.457031 12.816406 -19.53125 13.015625 -19.53125 Z M 16.15625 -19.53125 "/></g></g></g></svg>